<svg xmlns="http://www.w3.org/2000/svg" xmlns:xlink="http://www.w3.org/1999/xlink" xml:space="preserve" version="1.1" style="shape-rendering:geometricPrecision;text-rendering:geometricPrecision;image-rendering:optimizeQuality;" viewBox="0 0 692 865" x="0px" y="0px" fill-rule="evenodd" clip-rule="evenodd"><g><rect class="fil0" x="166" y="247" width="348.45" height="61.6784" rx="30" ry="31"/><rect class="fil0" x="166" y="381" width="348.45" height="61.6784" rx="30" ry="31"/><path class="fil0" d="M346 0c191,0 346,155 346,346 0,191 -155,346 -346,346 -191,0 -346,-155 -346,-346 0,-191 155,-346 346,-346zm0 79c147,0 267,119 267,267 0,147 -120,267 -267,267 -148,0 -267,-120 -267,-267 0,-148 119,-267 267,-267z"/></g><text x="0" y="707" fill="#000000" font-size="5px" font-weight="bold" font-family="'Helvetica Neue', Helvetica, Arial-Unicode, Arial, Sans-serif">Created by Manaqib S</text><text x="0" y="712" fill="#000000" font-size="5px" font-weight="bold" font-family="'Helvetica Neue', Helvetica, Arial-Unicode, Arial, Sans-serif">from the Noun Project</text></svg>