<svg xmlns="http://www.w3.org/2000/svg" xmlns:xlink="http://www.w3.org/1999/xlink" version="1.0" x="0px" y="0px" viewBox="0 0 100 125" enable-background="new 0 0 100 100" xml:space="preserve"><g display="none"><rect x="0" y="0.015" display="inline" fill="#000000" width="100" height="100"/></g><g><path d="M53.946,78.832l24.329-24.329c0.027-0.026,0.065-0.034,0.091-0.061c1.146-1.146,1.715-2.659,1.711-4.17   c0.004-1.511-0.564-3.023-1.711-4.17c-0.027-0.027-0.064-0.034-0.091-0.061L53.946,21.714c-2.285-2.285-6.024-2.285-8.308,0   c-2.285,2.285-2.285,6.024,0,8.308l20.251,20.251L45.638,70.524c-2.285,2.285-2.285,6.024,0,8.308   C47.923,81.117,51.662,81.117,53.946,78.832z"/><path d="M30.022,78.832l24.329-24.329c0.027-0.026,0.065-0.034,0.091-0.061c1.146-1.146,1.715-2.659,1.711-4.17   c0.004-1.511-0.564-3.023-1.711-4.17c-0.027-0.027-0.064-0.034-0.091-0.061L30.022,21.714c-2.285-2.285-6.024-2.285-8.308,0   s-2.285,6.024,0,8.308l20.251,20.251L21.714,70.524c-2.285,2.285-2.285,6.024,0,8.308C23.998,81.117,27.737,81.117,30.022,78.832z"/></g><text x="0" y="115" fill="#000000" font-size="5px" font-weight="bold" font-family="'Helvetica Neue', Helvetica, Arial-Unicode, Arial, Sans-serif">Created by David Swanson</text><text x="0" y="120" fill="#000000" font-size="5px" font-weight="bold" font-family="'Helvetica Neue', Helvetica, Arial-Unicode, Arial, Sans-serif">from the Noun Project</text></svg>